# xmcd CD database file
#
# Track frame offsets:
#	150
#	15812
#	33994
#	54006
#	77887
#	85621
#	109001
#	130715
#	152147
#	165300
#	178470
#	198736
#	210929
#
# Disc length: 3033 seconds
#
# Revision: 0
# Processed by: cddbd v1.5.2PL0 Copyright (c) Steve Scherf et al.
# Submitted via: CDex 1.51
#
DISCID=930bd70d
DTITLE=Wigald Boning - Jet Set Jazz
DYEAR=2008
DGENRE=Jazz
TTITLE0=Lost In London
TTITLE1=Waltz
TTITLE2=Ballade pour Alexa
TTITLE3=Kobra Dance
TTITLE4=Happy Day
TTITLE5=Mali
TTITLE6=Avalanche
TTITLE7=Modern Talking
TTITLE8=Sotheby
TTITLE9=Statement Break
TTITLE10=Ole
TTITLE11=Bossa Beirut
TTITLE12=Good Morning
EXTD=YEAR: 2008
EXTT0=
EXTT1=
EXTT2=
EXTT3=
EXTT4=
EXTT5=
EXTT6=
EXTT7=
EXTT8=
EXTT9=
EXTT10=
EXTT11=
EXTT12=
PLAYORDER=
